<?xml version="1.0" encoding="utf-8"?>
<!-- Generator: Adobe Illustrator 21.1.0, SVG Export Plug-In . SVG Version: 6.00 Build 0)  -->
<svg version="1.1" id="Layer_1" xmlns="http://www.w3.org/2000/svg" xmlns:xlink="http://www.w3.org/1999/xlink" x="0px" y="0px"
	 viewBox="0 0 16 16" style="enable-background:new 0 0 16 16;" xml:space="preserve">
<style type="text/css">
	.st0{fill:#404040;}
	.st1{fill:#FFFFFF;}
</style>
<path class="st0" d="M12.3,13.9c-0.5,0-1.2,0-1.7,0c-0.1,0-0.9-1.4-1.7-1.7c-0.9-0.6-1.8-0.4-2.3,0.6c0,0.1-0.4,1-0.4,1
	s-1.1,0-1.3,0c-0.2-0.4-0.1-1-0.3-1.3c-0.4-0.6-1-0.6-1.4-0.1c-0.5,0.5-0.7,1.4-0.7,1.4s-1.3,0-1.9,0c0-0.6,0.1-1.4,0.1-2
	C0.8,10.7,1,9.7,1.5,8.7c0.4-0.8,1.1-1.4,2-1.7c0.1,0.2,0.2,0.4,0.3,0.6c0.2,0.3,0.3,0.6,0.5,0.8c0.4,0.6,1,0.7,1.6,0.4
	C6.4,8.6,6.8,8.2,7,7.7C6.9,7.8,6.9,7.9,6.8,7.9C6.4,8.1,6,8.4,5.6,8.5c-0.4,0.2-0.8,0-1-0.3C4.3,7.6,3.9,7,3.6,6.3
	c-0.2-0.4,0-0.8,0.5-1c0.7-0.2,1.4-0.5,2.1-0.6c1.5-0.2,3,0.2,4.2,1.1c0.7,0.5,1.4,0.7,2.2,0.5c0.8-0.2,1.3-0.7,1.5-1.5
	c0.1-0.5,0-0.9-0.4-1.3c-0.4-0.3-0.8-0.4-1.2-0.3c-0.1,0-0.2,0.1-0.3,0.1c-0.2,0.1-0.4,0.1-0.5-0.2c-0.3-0.5-0.2-0.7,0.3-1
	c1-0.4,2.2,0,2.8,0.9c0.6,1,0.7,2,0.3,3.1c-0.4,1.2-1,2.3-1.8,3.4c-0.6,0.7-1.1,1.5-1.2,2.4C12.1,12.6,12.3,13.3,12.3,13.9z"/>
<path class="st1" d="M10.4,8.5c-0.1,0-0.2,0-0.3-0.1C9.6,8.3,9.4,7.7,9.6,7.2L10,7.3c-0.2,0.4,0,0.7,0.3,0.9c0.2,0.1,0.2,0.1,0.4,0
	c0.2-0.1,0.3-0.3,0.4-0.5l0.4,0.1c-0.1,0.2-0.4,0.5-0.6,0.6C10.7,8.5,10.6,8.5,10.4,8.5z"/>
</svg>
